# xmcd
#
# Track frame offsets: 
#        150
#        13335
#        14423
#        25801
#        27271
#        37659
#        46404
#        58884
#        76554
#        77769
#        93744
#        95222
#        115480
#
# Disc length: 1562 seconds
#
# Revision: 0
# Processed by: cddbd v1.5.2PL0 Copyright (c) Steve Scherf et al.
# Submitted via: ExactAudioCopy v0.99pb5
#
DISCID=9f06180d
DTITLE=Highlands Country - November 14, 2010
DYEAR=2010
DGENRE=Country
TTITLE0=Thank God I'm A Country Boy
TTITLE1=Talking
TTITLE2=Are You Washed In The Blood?
TTITLE3=Talking
TTITLE4=Amazing Grace
TTITLE5=Veteran's Day Video
TTITLE6=Announcements - Bill
TTITLE7=Mountains
TTITLE8=Talking
TTITLE9=Steps
TTITLE10=Talking
TTITLE11=I Believe
TTITLE12=Prayer
EXTD=
EXTT0=
EXTT1=
EXTT2=
EXTT3=
EXTT4=
EXTT5=
EXTT6=
EXTT7=
EXTT8=
EXTT9=
EXTT10=
EXTT11=
EXTT12=
PLAYORDER=
